# xmcd CD database file
#
# Track frame offsets:
#	150
#	31512
#	65431
#	90377
#	113048
#	161941
#	177951
#	197268
#	203396
#	236508
#	259142
#	272574
#
# Disc length: 3752 seconds
#
# Revision: 0
# Processed by: cddbd v1.5.1PL2 Copyright (c) Steve Scherf et al.
# Submitted via: CDex 1.51
#
DISCID=900ea60c
DTITLE=Richard Ball - Puzzlements
DYEAR=2005
DGENRE=Jazz
TTITLE0=Meadowlark
TTITLE1=Unconditional Friendship (For Vonnie)
TTITLE2=Chris and Karin's Wedding
TTITLE3=For the Boys in the Band
TTITLE4=Alaska and the Jones'
TTITLE5=A Chandrakauns for Kabir
TTITLE6=Parents and Friends
TTITLE7=The Bass Line the Guys Like
TTITLE8=Sweatin' to the Yogis
TTITLE9=A Soprano Kind of Thing
TTITLE10=Debbie's Flute Song
TTITLE11=Falling Apart
EXTD=YEAR: 2005
EXTT0=
EXTT1=
EXTT2=
EXTT3=
EXTT4=
EXTT5=
EXTT6=
EXTT7=
EXTT8=
EXTT9=
EXTT10=
EXTT11=
PLAYORDER=
